# xmcd
#
# Track frame offsets:
#	150
#	18690
#	33475
#	48255
#	72255
#	86892
#	104180
#	122242
#	135375
#	148297
#	166672
#
# Disc length: 2459 seconds
#
# Revision: 1
# Processed by: cddbd v1.4PL0 Copyright (c) Steve Scherf et al.
# Submitted via: audiograbber 1.81.03
#
DISCID=a209990b
DTITLE=Nightlife - Fill 'R Up
DYEAR=1900
DGENRE=Blues
TTITLE0=Fill 'R Up
TTITLE1=Bad Feelin'
TTITLE2=Ain't Comin' Home
TTITLE3=Got No Money
TTITLE4=I Got No Time At All
TTITLE5=Tell Me All About It
TTITLE6=Crossroads
TTITLE7=Cried Last Night
TTITLE8=Girls Go Wild
TTITLE9=Yeah, Yeah, Yeah
TTITLE10=Hot For You Babe
EXTD=
EXTT0=
EXTT1=
EXTT2=
EXTT3=
EXTT4=
EXTT5=
EXTT6=
EXTT7=
EXTT8=
EXTT9=
EXTT10=
PLAYORDER=
